/* XPM */
static char * class_xpm[] = {
"16 16 41 1",
" 	c None",
".	c #010100",
"+	c #020100",
"@	c #BA1DBA",
"#	c #C120C1",
"$	c #BA1CBA",
"%	c #C824C8",
"&	c #D229D2",
"*	c #C724C7",
"=	c #B91CB9",
"-	c #010000",
";	c #AE16AE",
">	c #BF1FBF",
",	c #D129D1",
"'	c #E231E2",
")	c #E131E1",
"!	c #D028D0",
"~	c #AD16AD",
"{	c #DF2FDF",
"]	c #DE2FDE",
"^	c #CF28CF",
"/	c #BE1EBE",
"(	c #AC15AC",
"_	c #A813A8",
":	c #B71BB7",
"<	c #C622C5",
"[	c #CE27CF",
"}	c #CE27CE",
"|	c #C522C5",
"1	c #A713A7",
"2	c #000000",
"3	c #9E0E9E",
"4	c #BD1EBD",
"5	c #BC1EBC",
"6	c #B61AB6",
"7	c #AC15AB",
"8	c #A612A6",
"9	c #AB15AB",
"0	c #9E0E9D",
"a	c #960A96",
"b	c #990C99",
"                ",
"                ",
"                ",
"      .++.      ",
"     .@##$.     ",
"    .$%&&*=.    ",
"   -;>,')!>~-   ",
"   -~>!{]^/(-   ",
"   -_:<[}|:1-   ",
"   23(:456732   ",
"    23899802    ",
"     2abba2     ",
"      2222      ",
"                ",
"                ",
"                "};
