/* XPM */
static char * function_xpm[] = {
"16 16 54 1",
" 	c None",
".	c #287E03",
"+	c #42C009",
"@	c #2B8303",
"#	c #2E8B04",
"$	c #4BCA0B",
"%	c #308E04",
"&	c #2C8503",
"*	c #47C50A",
"=	c #2E8A04",
"-	c #2F8B04",
";	c #48C70A",
">	c #2C8703",
",	c #2F8C04",
"'	c #4BCB0B",
")	c #2B8403",
"!	c #43C10A",
"~	c #297F03",
"{	c #2E8A03",
"]	c #2B8503",
"^	c #3EBA09",
"/	c #267803",
"(	c #2A8303",
"_	c #42BF09",
":	c #257603",
"<	c #39B408",
"[	c #227103",
"}	c #3FBB09",
"|	c #267903",
"1	c #227203",
"2	c #37B108",
"3	c #216D03",
"4	c #277C03",
"5	c #3DB909",
"6	c #257703",
"7	c #227003",
"8	c #35AF07",
"9	c #206B03",
"0	c #267A03",
"a	c #3CB708",
"b	c #247503",
"c	c #216E03",
"d	c #34AD07",
"e	c #1F6902",
"f	c #257803",
"g	c #3AB508",
"h	c #237303",
"i	c #206C03",
"j	c #32AB07",
"k	c #1E6702",
"l	c #39B308",
"m	c #1F6A02",
"n	c #31A907",
"o	c #1C6502",
"                ",
"                ",
"                ",
"   .+@  #$%     ",
"    &*=  -;>    ",
"     ,',  )!~   ",
"      {*]  .^/  ",
"       (_.  :<[ ",
"       .}|  123 ",
"      456  789  ",
"     0ab  cde   ",
"    fgh  ijk    ",
"   bl[  mno     ",
"                ",
"                ",
"                "};
